<svg id="Layer_1" data-name="Layer 1" xmlns="http://www.w3.org/2000/svg" viewBox="0 0 558.9 440.9"><defs><style>.cls-1,.cls-18,.cls-19,.cls-3,.cls-36,.cls-37,.cls-5{fill:#fff;}.cls-2{fill:#3ca0f0;}.cls-13,.cls-18,.cls-3,.cls-9{isolation:isolate;}.cls-3,.cls-36,.cls-37{font-size:8.5px;font-family:Arial-BoldMT, Arial;}.cls-18,.cls-3,.cls-36,.cls-37{font-weight:700;}.cls-4{fill:#0078d7;}.cls-19,.cls-5{stroke:#fff;stroke-miterlimit:3;}.cls-5{stroke-width:1.5px;}.cls-29,.cls-6,.cls-8{fill:none;}.cls-29,.cls-6{stroke:#0070c0;stroke-miterlimit:10;stroke-width:2px;}.cls-7{fill:#0070c0;}.cls-13,.cls-30,.cls-31,.cls-32,.cls-35,.cls-9{font-size:7.73px;}.cls-35,.cls-9{fill:#3f3f3f;}.cls-14,.cls-30,.cls-31,.cls-34,.cls-35,.cls-9{font-family:MalgunGothic, Malgun Gothic;}.cls-10,.cls-13,.cls-32{font-family:ArialMT, Arial;}.cls-11{letter-spacing:0em;}.cls-12{fill:#f2f2f2;stroke:#7f7f7f;stroke-linecap:round;stroke-linejoin:round;stroke-width:0.75px;}.cls-13,.cls-31{letter-spacing:-0.03em;}.cls-14,.cls-15{letter-spacing:-0.03em;}.cls-16{fill:#005694;}.cls-17{fill:#ab3107;}.cls-18{font-size:11px;font-family:MalgunGothicBold, Malgun Gothic;}.cls-19{stroke-width:1.55px;}.cls-20{fill:#006fd4;}.cls-21{fill:#0089cf;}.cls-22{fill:#fcfdfe;}.cls-23{fill:#fdfcfd;}.cls-24{fill:#f5f4f8;}.cls-25{fill:#058bd0;}.cls-26{fill:#eaf2f8;}.cls-27{fill:#f5f7fa;}.cls-28{fill:#f3f5f9;}.cls-29{stroke-linecap:square;}.cls-33{letter-spacing:-0.02em;}.cls-37{letter-spacing:-0.03em;}</style></defs><title>OJ103682916_clari</title><rect class="cls-1" width="558.9" height="440.9"/><g id="shape17-11"><rect class="cls-2" x="456.2" y="106.3" width="68.7" height="36.2"/><text class="cls-3" transform="translate(464.7 126.86)">Azure Batch</text></g><g id="shape18-15"><rect class="cls-2" x="456.2" y="225.7" width="68.7" height="36.2"/><text class="cls-3" transform="translate(457.69 246.29)">Azure Functions</text></g><g id="shape19-19"><rect class="cls-2" x="456.2" y="284.7" width="68.7" height="36.2"/></g><g id="shape21-24"><rect class="cls-2" x="456.2" y="165.8" width="68.7" height="36.2"/></g><g id="group1056-307"><g id="shape22-308"><rect class="cls-2" x="456.2" y="404.7" width="68.7" height="36.2"/></g><g id="shape1044-313"><path class="cls-4" d="M553.3,419.6v6.3l3.9-1.5V421Zm-1.5,5.4-.2-.1v-4.3l.2-.1.2-.1.3-.1v4.8l-.3-.1Zm-.9-.2-.2-.1v-3.8l.6-.2v4.2l-.2-.1Zm-.8-.3-.2-.1V421l.5-.2v3.7Zm-.3-3.9v4.1l2.9,1.2v-6.3Zm-1.2-7.2v6.3l3.9-1.5v-3.4Zm0,12.5v6.3l3.9-1.5v-3.4Zm-1.5-7.1-.2-.1v-4.3l.2-.1.2-.1.3-.1V419l-.3-.1Zm-.9-.3-.2-.1v-3.9l.6-.2v4.2l-.2-.1Zm-.8-.3-.2-.1v-3.4l.5-.2v3.7Zm-.3-3.8v4.1l2.9,1.2v-6.2Zm2,17-.2-.1V427l.2-.1.2-.1.3-.1v4.9l-.3-.1Zm-.9-.3-.2-.1v-3.8l.6-.2v4.2l-.2-.1Zm-.8-.3-.2-.1v-3.4l.5-.2v3.7Zm-.3-3.7v4.1l2.9,1.2v-6.3Zm-.7-7.4V426l3.9-1.5v-3.4Zm-1.6,5.4-.2-.1v-4.4l.2-.1.2-.1.3-.1v4.8l-.3-.1Zm-.9-.3-.2-.1v-3.8l.6-.2v4.2l-.2-.1Zm-.8-.2-.2-.1v-3.4l.5-.2v3.7Zm-.3-3.9v4.1l2.9,1.2v-6.3Zm-1.3-7.3v6.3l3.9-1.5v-3.4Zm0,12.6v6.3l3.9-1.5v-3.4Zm-1.5-7.2-.2-.1v-4.3l.2-.1.2-.1.3-.1V419l-.3-.1Zm-1-.3-.2-.1v-3.9l.6-.2v4.2l-.2-.1Zm-.7-.2-.2-.1v-3.4l.5-.2v3.7Zm-.3-3.8v4.1l2.9,1.2v-6.3Zm2,16.9-.2-.1V427l.2-.1.2-.1.3-.1v4.9l-.3-.1Zm-1-.3-.2-.1v-3.8l.6-.2v4.2l-.2-.1Zm-.7-.3-.2-.1v-3.4l.5-.2v3.7Zm-.3-3.7v4.1l2.9,1.2v-6.3Zm-.7-7.4V426l3.9-1.5v-3.4Zm-1.6,5.4-.2-.1v-4.4l.2-.1.2-.1.3-.1v4.8l-.3-.1h-.2Zm-.9-.3-.2-.1v-3.8l.6-.2v4.2l-.2-.1Zm-.8-.2-.2-.1v-3.4l.5-.2v3.7Zm-.3-3.9v4.1l2.9,1.2v-6.3Z"/></g></g><g id="group1057-315"><g id="shape20-316"><rect class="cls-2" x="456.2" y="347.7" width="68.7" height="36.2"/><text class="cls-3" transform="translate(461.16 368.32)">Service Fabric</text></g><g id="group1045-320"><g id="shape1046-321"><path class="cls-5" d="M538.1,362.3c-.1-.2-.1-.3-.2-.4l2.3-1.9a1.76,1.76,0,0,0,.5.4Zm6.4,12.2a3.61,3.61,0,1,0,6.7-2.7,3,3,0,0,0-1.1-1.4l1-3.4a3.65,3.65,0,0,0-1.2-7.2,3.36,3.36,0,0,0-1.4.5l-2.5-2.1a3.59,3.59,0,0,0,.2-1.1,3.65,3.65,0,1,0-7.3-.3v.3a4.25,4.25,0,0,0,.2,1.1l-2.7,2.2a5.26,5.26,0,0,0-1.8-.4c-2,0-3.6,1.2-3.6,3.2a3.64,3.64,0,0,0,3,3.6l1,3.5a3.61,3.61,0,0,0,4.8,5.4,2.81,2.81,0,0,0,1-1.4l3.7.2Zm.3-14.3.2-.2,2.3,1.9-.1.2Z"/></g><g id="shape1047-323"><path class="cls-4" d="M554.2,363.4a3.61,3.61,0,0,0-5.6-3l-2.5-2.1a3.59,3.59,0,0,0,.2-1.1,3.65,3.65,0,1,0-7.3-.3v.3a4.25,4.25,0,0,0,.2,1.1l-2.7,2.2a5.26,5.26,0,0,0-1.8-.4c-2,0-3.6,1.2-3.6,3.2a3.64,3.64,0,0,0,3,3.6l1,3.5a3.61,3.61,0,1,0,4.8,5.4,3.07,3.07,0,0,0,1-1.5h3.7a3.58,3.58,0,1,0,6.7-2.5,2.83,2.83,0,0,0-1.1-1.5l1-3.4A3.47,3.47,0,0,0,554.2,363.4Zm-6.3,6.2a3.73,3.73,0,0,0-3.6,2.9h-3.4a3.73,3.73,0,0,0-3.6-2.9.75.75,0,0,0-.5.1l-.8-2.9a3.46,3.46,0,0,0,2.2-3.3,2.82,2.82,0,0,0-.4-1.5l2.3-1.9a3.52,3.52,0,0,0,4.7,0l2.3,1.9a3.67,3.67,0,0,0,1.8,4.8h.1l-.8,2.9C548.2,369.6,548,369.6,547.9,369.6Z"/></g></g></g><g id="shape11-2"><rect class="cls-2" x="456.2" y="46.6" width="68.7" height="36.2"/><text class="cls-3" transform="translate(470.9 67.23)">VM/VMSS</text></g><line class="cls-6" x1="368.9" y1="83.5" x2="368.9" y2="98.8"/><polygon class="cls-7" points="366.2 97 368.9 106.9 371.6 97 366.2 97"/><line class="cls-6" x1="393.4" y1="64.7" x2="449.2" y2="64.7"/><polygon class="cls-7" points="447.4 67.4 457.2 64.7 447.4 62.1 447.4 67.4"/><line class="cls-6" x1="393.4" y1="124.3" x2="449.2" y2="124.3"/><polygon class="cls-7" points="447.4 127 457.2 124.3 447.4 121.7 447.4 127"/><line class="cls-6" x1="393.4" y1="185.8" x2="449.2" y2="185.8"/><polygon class="cls-7" points="447.4 188.4 457.2 185.8 447.4 183.1 447.4 188.4"/><line class="cls-6" x1="393.2" y1="243.8" x2="449" y2="243.8"/><polygon class="cls-7" points="447.1 246.4 457 243.8 447.1 241.2 447.1 246.4"/><line class="cls-6" x1="392.4" y1="304.6" x2="448.2" y2="304.6"/><polygon class="cls-7" points="447.4 307.3 457.2 304.6 447.4 302 447.4 307.3"/><line class="cls-6" x1="390.6" y1="366.2" x2="449.2" y2="366.2"/><polygon class="cls-7" points="447.4 368.9 457.2 366.2 447.4 363.5 447.4 368.9"/><line class="cls-6" x1="403.6" y1="366.2" x2="448.4" y2="403.8"/><polygon class="cls-7" points="446.9 405.7 456.2 410 450.3 401.6 446.9 405.7"/><line class="cls-6" x1="71.8" y1="83.6" x2="71.8" y2="183.2"/><polygon class="cls-7" points="69.2 181.4 71.8 191.2 74.4 181.4 69.2 181.4"/><line class="cls-6" x1="55" y1="226" x2="55" y2="330"/><polygon class="cls-7" points="52.4 328.3 55 338.1 57.6 328.3 52.4 328.3"/><g id="shape16-7"><rect class="cls-2" x="35" y="337.5" width="68.7" height="36.2"/><text class="cls-3" transform="translate(48.72 358.13)">VM/VMSS</text></g><g id="shape39-100"><rect class="cls-8" x="267" y="65.4" width="49.6" height="15.5"/><text class="cls-9" transform="translate(274.2 75.45)">그린필드</text></g><g id="shape40-104"><rect class="cls-8" x="133.3" y="65.5" width="52.7" height="15.5"/><text class="cls-9" transform="translate(141.5 75.6)">브라운필드</text></g><g id="shape41-108"><rect class="cls-8" x="7.2" y="101" width="52.7" height="15.5"/><text class="cls-9" transform="translate(7.37 111.06)">리프트<tspan class="cls-10" x="23.18" y="0"> </tspan><tspan x="25.33" y="0">앤</tspan><tspan class="cls-10" x="33.05" y="0"> </tspan><tspan class="cls-11" x="35.2" y="0">시프트</tspan></text></g><g id="shape43-117"><rect class="cls-8" x="403.3" y="48.5" width="33.8" height="15.5"/><text class="cls-9" transform="translate(414.46 58.51)">예</text></g><g id="shape44-121"><rect class="cls-8" x="404.3" y="107.5" width="31.8" height="15.5"/><text class="cls-9" transform="translate(414.46 117.5)">예</text></g><g id="shape44-121-2" data-name="shape44-121"><rect class="cls-8" x="365.14" y="203.59" width="31.8" height="15.5"/><text class="cls-9" transform="translate(375.3 213.59)">예</text></g><g id="shape44-121-3" data-name="shape44-121"><rect class="cls-8" x="365.05" y="323.26" width="31.8" height="15.5"/><text class="cls-9" transform="translate(375.21 333.26)">예</text></g><g id="shape49-137"><rect class="cls-8" x="407.1" y="350.6" width="26.3" height="15.5"/><text class="cls-9" transform="translate(414.46 360.6)">예</text></g><g id="shape50-141"><rect class="cls-8" x="364.46" y="144.6" width="31.8" height="15.5"/><text class="cls-9" transform="translate(375.2 154.57)">아니요</text></g><g id="shape51-145"><rect class="cls-8" x="364.57" y="263.6" width="31.8" height="15.5"/><text class="cls-9" transform="translate(375.25 273.61)">아니요</text></g><g id="shape52-149"><rect class="cls-8" x="404.3" y="289.1" width="31.8" height="15.5"/><text class="cls-9" transform="translate(415.1 299.17)">아니요</text></g><g id="shape53-153"><rect class="cls-8" x="424.8" y="380.5" width="31.8" height="15.5"/><text class="cls-9" transform="translate(435.57 390.53)">아니요</text></g><path class="cls-12" d="M197,47.3h57c5.1,0,9.3,6.3,9.3,13.9v8.3c0,7.6-4.2,13.9-9.3,13.9H197c-5.1,0-9.3-6.3-9.3-13.9V61.2C187.7,53.5,191.9,47.3,197,47.3Z"/><g id="shape2-172"><path class="cls-12" d="M341.7,106.3h50.8a14,14,0,0,1,13.9,13.9v8.3a14,14,0,0,1-13.9,13.9H341.7a14,14,0,0,1-13.9-13.9v-8.3A13.81,13.81,0,0,1,341.7,106.3Z"/><text class="cls-13" transform="translate(330.24 126.62)">HPC <tspan class="cls-14" x="17.53" y="0">워크로드입니까</tspan><tspan class="cls-15" x="69.99" y="0">?</tspan></text></g><g id="shape3-176"><path class="cls-12" d="M341.7,165.8h50.8a14,14,0,0,1,13.9,13.9V188a14,14,0,0,1-13.9,13.9H341.7A14,14,0,0,1,327.8,188v-8.3A13.75,13.75,0,0,1,341.7,165.8Z"/></g><g id="shape4-181"><path class="cls-12" d="M341.7,225.2h50.8a14,14,0,0,1,13.9,13.9v8.3a14,14,0,0,1-13.9,13.9H341.7a14,14,0,0,1-13.9-13.9v-8.3A13.81,13.81,0,0,1,341.7,225.2Z"/></g><g id="shape5-187"><path class="cls-12" d="M59.5,41.33h50.8c7.6,0,13.9,7.38,13.9,16.28v9.72c0,8.89-6.3,16.27-13.9,16.27H59.5c-7.6,0-13.9-7.38-13.9-16.27V57.61C45.6,48.71,51.8,41.33,59.5,41.33Z"/></g><g id="shape6-192"><path class="cls-12" d="M341.7,46.6h50.8a14,14,0,0,1,13.9,13.9v8.3a14,14,0,0,1-13.9,13.9H341.7a14,14,0,0,1-13.9-13.9V60.5A13.87,13.87,0,0,1,341.7,46.6Z"/></g><g id="shape15-198"><path class="cls-12" d="M341.7,284.7h50.8a14,14,0,0,1,13.9,13.9v8.3a14,14,0,0,1-13.9,13.9H341.7a14,14,0,0,1-13.9-13.9v-8.3A13.75,13.75,0,0,1,341.7,284.7Z"/></g><g id="shape55-203"><rect class="cls-8" x="364.5" y="84.9" width="31.8" height="15.5"/><text class="cls-9" transform="translate(375.24 94.97)">아니요</text></g><g id="shape56-207"><rect class="cls-8" x="404.3" y="170.3" width="31.8" height="15.5"/><text class="cls-9" transform="translate(415.1 180.31)">아니요</text></g><g id="shape1002-211"><path class="cls-16" d="M225.6,47.2l-9.3-9.3h4.6V12.4h9.3V37.9h4.6Z"/></g><path class="cls-17" d="M213.1,0H238a14,14,0,0,1,13.9,13.9v2.8A14,14,0,0,1,238,30.6H213.1a14,14,0,0,1-13.9-13.9V13.9A13.87,13.87,0,0,1,213.1,0Z"/><text class="cls-18" transform="translate(213.9 17.63)">시작</text><g id="shape1013-217"><path class="cls-4" d="M18.2,355.6h0l3.9-2.2a.1.1,0,0,0,.1-.1c0-.1,0-.1-.1-.1L18.2,351H18l-3.9,2.2-.1.1c0,.1,0,.1.1.1l4.1,2.2Zm-.6,5.4h0l.1-4.6c0-.1,0-.1-.1-.1l-3.9-2.2h-.1l-.1.1v4.5c0,.1,0,.1.1.1l4,2.2Zm1.1,0h0l3.9-2.2a.1.1,0,0,0,.1-.1v-4.5c0-.1,0-.1-.1-.1h-.1l-3.9,2.2a.1.1,0,0,0-.1.1l.2,4.6Zm-1.6-13-2.4-1.4h-.1L12.2,348H8a1.22,1.22,0,0,0-1.2,1.2V358H5.1V345.3H23.8V348ZM21,364.1h6.4a1.3,1.3,0,0,0,1.3-1.2V349.3a1.3,1.3,0,0,0-1.3-1.2h-2V345a1.3,1.3,0,0,0-1.3-1.2H21.9v-3.1a1.3,1.3,0,0,0-1.3-1.2H1.2A1.22,1.22,0,0,0,0,340.7v13.6a1.16,1.16,0,0,0,1.2,1.2H3.4v3.1a1.16,1.16,0,0,0,1.2,1.2H6.7v3.1a1.16,1.16,0,0,0,1.2,1.2H15c.7,2.5-.2,2.9-4.5,2.9v1.4H24.9v-1.3C20.8,367,20.3,366.6,21,364.1Zm6.3-1.7H8.6V349.7H27.3ZM13.6,343.7l-2.3-1.4h-.1l-2.4,1.4H4.6a1.16,1.16,0,0,0-1.2,1.2v8.8H1.6V341H20.3v2.7Z"/></g><g id="shape1014-219"><path class="cls-4" d="M548.3,66.6h0l3.9-2.2.1-.1c0-.1,0-.1-.1-.1L548.3,62h-.1l-3.9,2.2-.1.1c0,.1,0,.1.1.1l4,2.2Zm-.6,5.4h0c.1,0,.1-.1,0,0l.1-4.6c0-.1,0-.1-.1-.1l-3.9-2.2h-.2l-.1.1v4.5c0,.1,0,.1.1.1l4.1,2.2Zm1.2,0h0l3.9-2.2a.1.1,0,0,0,.1-.1V65.2c0-.1,0-.1-.1-.1h-.2l-3.9,2.2-.1.1v4.5c.1,0,.1.1.3.1Zm-1.7-13.1-2.4-1.4h-.1l-2.3,1.4h-4.2a1.22,1.22,0,0,0-1.2,1.2v8.8h-1.6V56.2h18.5v2.7Zm4,16.1h6.4a1.3,1.3,0,0,0,1.3-1.2V60.3a1.3,1.3,0,0,0-1.3-1.2h-2V55.9a1.3,1.3,0,0,0-1.3-1.2h-2.2V51.6a1.3,1.3,0,0,0-1.3-1.2H531.3a1.22,1.22,0,0,0-1.2,1.2V65.2a1.16,1.16,0,0,0,1.2,1.2h2.2v3.1a1.16,1.16,0,0,0,1.2,1.2h2.2v3.1a1.16,1.16,0,0,0,1.2,1.2h7.1c.7,2.5-.2,2.9-4.5,2.9v1.3h14.4V77.9c-4.2,0-4.7-.4-3.9-2.9Zm6.2-1.7H538.7V60.6h18.7ZM543.8,54.6l-2.3-1.4h-.1l-2.3,1.4h-4.2a1.16,1.16,0,0,0-1.2,1.2v8.8h-1.8V51.9h18.7v2.6l-6.8.1Z"/></g><g id="group1015-221"><g id="shape1016-222"><path class="cls-19" d="M547.1,125.3a1.28,1.28,0,0,0-1-1H534.3c-.4,0-.7.6-.7,1v11.8a.73.73,0,0,0,.6.7h12.1c.4,0,.9-.4.9-.7l-.1-11.8Z"/></g><g id="shape1017-224"><path class="cls-19" d="M555.5,127.8c0-.2-.2-.3-.4-.4h-6c-.2,0-.3.2-.4.4v6c0,.2.2.3.4.4h6c.2,0,.3-.2.4-.4Z"/></g><g id="shape1018-226"><path class="cls-19" d="M553.2,123.3s.6-4.6-3.6-5.5h-.9a3.09,3.09,0,0,0-.8.2v1.9a1.17,1.17,0,0,1,.8-.2,2.2,2.2,0,0,1,.8.1c1,.4,2,1,1.8,3.6h-1.8l2.9,3.6,2.8-3.6-2-.1Z"/></g><g id="shape1019-228"><path class="cls-19" d="M556.9,129.2h-.6v5.9h-5.9v.5c0,.2.2.3.4.4h6c.2,0,.3-.2.4-.4v-6c0-.2-.1-.3-.3-.4Z"/></g><g id="shape1020-230"><path class="cls-19" d="M540,130.9h-.5v5.9h-5.9v.5c0,.2.2.3.4.4h6c.2,0,.3-.2.4-.4v-6A.43.43,0,0,0,540,130.9Z"/></g><g id="group1021-232"><g id="group1022-233"><g id="shape1023-234"><rect class="cls-20" x="536" y="117.5" width="8.5" height="1.7"/></g><g id="shape1024-236"><rect class="cls-20" x="536" y="119.9" width="8.5" height="1.7"/></g><g id="shape1025-238"><rect class="cls-20" x="536" y="122.5" width="8.5" height="1.7"/></g></g><g id="group1026-240"><g id="shape1027-241"><path class="cls-20" d="M547.1,125.3a1.28,1.28,0,0,0-1-1H534.3c-.4,0-.7.6-.7,1v11.8a.73.73,0,0,0,.6.7h12.1c.4,0,.9-.4.9-.7l-.1-11.8Zm-1.8,10.8H535.2v-8.5h10.1Z"/></g><g id="shape1028-243"><path class="cls-20" d="M555.5,127.9c0-.2-.2-.3-.4-.4h-6c-.2,0-.3.2-.4.4v6c0,.2.2.3.4.4h6a.43.43,0,0,0,.4-.4Zm-.9,5.6h-5.1v-4.2h5.1Z"/></g><g id="shape1029-245"><rect class="cls-20" x="550.4" y="130.1" width="3.4" height="0.8"/></g><g id="shape1030-247"><path class="cls-20" d="M553.2,123.3s.6-4.6-3.6-5.5h-.9a3.09,3.09,0,0,0-.8.2v1.9a1.17,1.17,0,0,1,.8-.2,2.2,2.2,0,0,1,.8.1c1,.4,2,1,1.8,3.6h-1.8l2.9,3.6,2.8-3.6Z"/></g><g id="shape1031-249"><path class="cls-20" d="M556.9,129.3h-.6v5.9h-5.9v.5c0,.2.2.3.4.4h6c.2,0,.3-.2.4-.4v-6c0-.2-.1-.3-.3-.4Z"/></g><g id="shape1032-251"><path class="cls-20" d="M558.5,130.9H558v5.9h-5.9v.5c0,.2.2.3.4.4h6c.2,0,.3-.2.4-.4v-6c0-.2-.2-.3-.4-.4Z"/></g></g></g></g><g id="group1033-254"><g id="group1034-255"><g id="shape1036-257"><path class="cls-5" d="M555,182.3v-9.9H534.1v21h21l-.1-11.1Z"/></g></g><g id="group1037-259"><g id="shape1038-260"><path class="cls-4" d="M542.4,192h-7v-7h1.4a3.4,3.4,0,0,1-.2-1.4v-.1h-2.7v9.8h9.9v-5.8h-1.5Z"/></g><g id="shape1039-262"><path class="cls-4" d="M552.3,185h1.3v7h-7v-4.4h-1.5v5.9H555v-9.8h-3.1a1.84,1.84,0,0,1,.4,1.3Z"/></g><g id="shape1040-264"><path class="cls-4" d="M535.4,180.9v-7h7v4a6.89,6.89,0,0,1,1.5-.7v-4.8H534v9.9h2.9a6,6,0,0,1,.9-1.5h-2.4Z"/></g><g id="shape1041-266"><path class="cls-4" d="M546.5,177.2v-3.3h7v7h-3a3.4,3.4,0,0,1,.2,1.4v.1H555v-9.9H545v4.6h.4A2,2,0,0,1,546.5,177.2Z"/></g></g><g id="shape1042-268"><path class="cls-4" d="M551.1,184.9a1.54,1.54,0,0,0-1.5-1.5h-.2a5,5,0,0,0,.2-1.2,4.15,4.15,0,0,0-8.1-1.3,2.92,2.92,0,0,0-.9-.2,2.8,2.8,0,0,0-2.8,2.8v.1a2.88,2.88,0,0,0,2.8,2.9h9.2A1.46,1.46,0,0,0,551.1,184.9Z"/></g></g><path class="cls-4" d="M546.8,232h-7.5l-4,11.4h4.9l-3.9,11.2,10.6-15h-5.2Zm-18,11.4,1.2,1.3h0l5.3,5.1a.57.57,0,1,0,.8-.8l-5.6-5.6a.61.61,0,0,1,0-.8l5.4-5.4a.61.61,0,0,0,.1-.8l-.1-.1a.61.61,0,0,0-.8,0l-5.3,5.1-1.2,1.2A.65.65,0,0,0,528.8,243.4Zm24.1,0a.61.61,0,0,0,0-.8l-1.2-1.2-5.3-5.1a.61.61,0,0,0-.9.8l.1.1,5.6,5.4a.61.61,0,0,1,0,.8l-5.6,5.6a.57.57,0,0,0,.8.8l5.3-5.2h0Z"/><g id="shape1048-276"><path class="cls-12" d="M41.4,190.2H92.2a14,14,0,0,1,13.9,13.9v8.3a14,14,0,0,1-13.9,13.9H41.4a14,14,0,0,1-13.9-13.9v-8.3A14,14,0,0,1,41.4,190.2Z"/></g><g id="shape1051-291"><rect class="cls-8" x="87.8" y="228.3" width="31.8" height="15.5"/><text class="cls-9" transform="translate(97.95 238.29)">예</text></g><g id="shape1052-295"><rect class="cls-8" x="26.2" y="228.5" width="31.8" height="15.5"/><text class="cls-9" transform="translate(26.62 238.54)">아니요</text></g><g id="shape1053-299"><path class="cls-12" d="M340.3,344.9h50.8c7.6,0,13.9,5.35,13.9,11.81v14.86c0,6.45-6.3,11.81-13.9,11.81H340.3c-7.6,0-13.9-5.36-13.9-11.81V356.71C326.4,350.25,332.5,344.9,340.3,344.9Z"/></g><line class="cls-6" x1="368.9" y1="142.3" x2="368.9" y2="157.6"/><polygon class="cls-7" points="366.2 155.8 368.9 165.7 371.6 155.8 366.2 155.8"/><line class="cls-6" x1="368.9" y1="201.8" x2="368.9" y2="217.1"/><polygon class="cls-7" points="366.2 215.4 368.9 225.2 371.6 215.4 366.2 215.4"/><line class="cls-6" x1="368.9" y1="261.7" x2="368.9" y2="277"/><polygon class="cls-7" points="366.2 275.2 368.9 285.1 371.6 275.2 366.2 275.2"/><line class="cls-6" x1="368.9" y1="320.7" x2="368.9" y2="336"/><polygon class="cls-7" points="366.2 334.3 368.9 344.2 371.6 334.3 366.2 334.3"/><g id="shape44-121-2-2" data-name="shape44-121-2"><rect class="cls-8" x="404.3" y="228.3" width="31.8" height="15.5"/><text class="cls-9" transform="translate(414.46 238.3)">예</text></g><path class="cls-21" d="M556.3,316.3h-27v-27h27ZM538.1,312c.1,0,.2.1.3.1h8.7c.5,0,.6-.3.6-.7v-8.7c0-.9-.1-1-1-1h-8.3c-.5,0-.6.2-.6.6v9.2A2.19,2.19,0,0,1,538.1,312Zm10.2-6.6h.4A3.82,3.82,0,0,0,552,302a3.91,3.91,0,0,0-2.4-4c-.5-.2-.5-.4-.6-.8a4.42,4.42,0,0,0-5.6-3.4,5.33,5.33,0,0,0-2.3,1.6,3.62,3.62,0,0,0-4.1-.1,3.37,3.37,0,0,0-1.5,3.7c-1.8,1.2-2.3,2.7-1.6,4.3a3.11,3.11,0,0,0,3.4,1.9v-3.1c0-.9.2-1.2,1.2-1.2h3.6V299a4.91,4.91,0,0,1-1.1-.1c.7-.9,1.2-1.7,1.9-2.6.6.9,1.2,1.7,1.9,2.6-.5,0-.7.1-1.1.1v1.9h3.6c.8,0,1.1.2,1.1,1.1C548.3,303.2,548.3,304.3,548.3,305.4Z"/><path class="cls-22" d="M548.3,305.4v-3.2c0-.8-.2-1.1-1.1-1.1h-3.6v-1.9c.3,0,.6-.1,1.1-.1-.6-.8-1.2-1.7-1.9-2.6-.6.8-1.2,1.7-1.9,2.6.4,0,.7.1,1.1.1v1.9h-3.6c-.9,0-1.2.2-1.2,1.2v3.1a3,3,0,0,1-3.4-1.9c-.7-1.7-.2-3.2,1.6-4.3a3.52,3.52,0,0,1,1.5-3.7,3.62,3.62,0,0,1,4.1.1,5.33,5.33,0,0,1,2.3-1.6,4.42,4.42,0,0,1,5.6,3.4.87.87,0,0,0,.6.8,3.86,3.86,0,0,1-.9,7.4C548.5,305.4,548.5,305.4,548.3,305.4Z"/><path class="cls-23" d="M538.1,312a1.69,1.69,0,0,1-.2-.5v-9.2c0-.5.2-.6.6-.6h8.3c.9,0,1,.1,1,1v3.1a4.05,4.05,0,0,1-.5-.9c-.1-.4-.1-.8-.2-1.2s-.2-.6-.7-.5c-.2-.1-.3-.2-.5-.2h-6.8a.1.1,0,0,1-.1.1v7.8c-.2.2-.2.3-.4.5A3.81,3.81,0,0,0,538.1,312Z"/><path class="cls-24" d="M546.5,303c.4-.1.6.2.7.5a5,5,0,0,0,.2,1.2,4.05,4.05,0,0,0,.5.9v5.6c0,.4-.1.7-.6.7h-8.7c-.1,0-.2-.1-.3-.1a2.41,2.41,0,0,0,.6-.8c.2-.2.2-.3.4-.5a.9.9,0,0,0,.5.1h6.4a.6.6,0,0,0,.4-.1v-.8C546.5,307.8,546.5,305.4,546.5,303Z"/><path class="cls-25" d="M546.5,303v7.8c-.2,0-.3.1-.4.1h-6.4c-.2,0-.3-.1-.5-.1V303a.1.1,0,0,1,.1-.1h6.8C546.2,302.8,546.3,303,546.5,303Zm-4.4,7.2h1.5v-6.6h-1.5Zm-.7-6.6h-1.5v6.6h.8c.5.1.6-.2.6-.7v-4.7A4.87,4.87,0,0,0,541.4,303.6Zm2.8,0V309c0,1.3,0,1.3,1.3,1.3a.31.31,0,0,0,.2-.1v-6.6Z"/><path class="cls-26" d="M542.1,310.2v-6.6h1.5v6.6Z"/><path class="cls-27" d="M541.4,303.6v5.9c0,.5-.1.8-.6.7H540v-6.6Z"/><path class="cls-28" d="M544.2,303.6h1.5v6.6c-.1,0-.1.1-.2.1-1.3.1-1.3.1-1.3-1.3v-5.4Z"/><line class="cls-6" x1="263.9" y1="65.3" x2="319.7" y2="65.3"/><polygon class="cls-7" points="317.9 68 327.7 65.3 317.9 62.7 317.9 68"/><line class="cls-6" x1="187.6" y1="65.8" x2="131.8" y2="65.8"/><polygon class="cls-7" points="133.6 62.7 123.8 65.4 133.6 68 133.6 62.7"/><line class="cls-29" x1="106.1" y1="124.8" x2="319.7" y2="124.8"/><polygon class="cls-7" points="317.9 127.5 327.7 124.8 317.9 122.2 317.9 127.5"/><line class="cls-6" x1="106.1" y1="83.5" x2="106.1" y2="124.3"/><line class="cls-29" x1="84.9" y1="305.1" x2="317.7" y2="305.1"/><polygon class="cls-7" points="317.7 307.7 327.5 305 317.7 302.4 317.7 307.7"/><line class="cls-6" x1="84.9" y1="226" x2="84.9" y2="305.1"/><text class="cls-30" transform="translate(44.35 206.23)">컨테이너화할<tspan class="cls-10" x="46.36" y="0" xml:space="preserve"> </tspan><tspan x="0.64" y="9.27">수</tspan><tspan class="cls-10" x="8.37" y="9.27"> </tspan><tspan x="10.51" y="9.27">있습니까</tspan><tspan class="cls-10" x="41.42" y="9.27">?</tspan></text><text class="cls-30" transform="translate(68.92 51.6)">리프트<tspan class="cls-10" x="23.18" y="0"> </tspan><tspan x="25.32" y="0">앤</tspan><tspan class="cls-10" x="33.05" y="0"> </tspan><tspan x="-15.45" y="9.27">시프트입니까</tspan><tspan class="cls-10" x="30.9" y="9.27"> </tspan><tspan x="33.05" y="9.27">또는</tspan><tspan class="cls-10" x="48.5" y="9.27"> </tspan><tspan x="1.07" y="18.54">클라우드</tspan><tspan class="cls-10" x="31.98" y="18.54"> </tspan><tspan x="-16.53" y="27.81">최적화되었습니까</tspan><tspan class="cls-10" x="45.28" y="27.81">?</tspan></text><text class="cls-30" transform="translate(190.97 63.22) scale(0.96 1)">그린필드입니까<tspan class="cls-10" x="54.08" y="0"> </tspan><tspan x="56.23" y="0">또는</tspan><tspan class="cls-10" x="71.68" y="0"> </tspan><tspan x="2.79" y="9.27">브라운필드입니까</tspan><tspan class="cls-10" x="64.6" y="9.27">?</tspan></text><text class="cls-30" transform="translate(344.02 57.99)">모든<tspan class="cls-10" x="15.45" y="0"> </tspan><tspan x="17.6" y="0">권한</tspan><tspan class="cls-10" x="33.05" y="0"> </tspan><tspan x="35.2" y="0">및</tspan><tspan class="cls-10" x="42.92" y="0">/</tspan><tspan x="-1.72" y="9.27">또는</tspan><tspan class="cls-10" x="13.74" y="9.27"> </tspan><tspan x="15.88" y="9.27">이식성이</tspan><tspan class="cls-10" x="46.79" y="9.27"> </tspan><tspan x="1.07" y="18.54">필요합니까</tspan><tspan class="cls-10" x="39.7" y="18.54">?</tspan></text><text class="cls-30" transform="translate(339.09 181.97)">마이크로<tspan class="cls-10" x="30.9" y="0"> </tspan><tspan x="33.05" y="0">서비스</tspan><tspan class="cls-10" x="56.23" y="0"> </tspan><tspan x="-1.08" y="9.27">아키텍처입니까</tspan><tspan class="cls-10" x="53.01" y="9.27">?</tspan></text><text class="cls-30" transform="translate(356.33 296.39)">완전한<tspan class="cls-10" x="23.18" y="0"> </tspan><tspan x="-19.32" y="9.27">오케스트레이션이</tspan><tspan class="cls-10" x="42.49" y="9.27"> </tspan><tspan x="-9.87" y="18.54">필요합니까</tspan><tspan class="cls-10" x="28.76" y="18.54">?</tspan></text><text class="cls-31" transform="translate(331.8 238.41)">일시적인<tspan class="cls-10" x="29.98" y="0"> </tspan><tspan x="31.89" y="0">프로세스를</tspan><tspan class="cls-10" x="69.36" y="0"> </tspan><tspan x="2.79" y="9.27">포함한</tspan><tspan class="cls-10" x="25.27" y="9.27"> </tspan><tspan x="27.19" y="9.27">이벤트</tspan><tspan class="cls-10" x="49.67" y="9.27"> </tspan><tspan x="51.58" y="9.27">구동</tspan><tspan class="cls-10" x="66.57" y="9.27"> </tspan><tspan x="6.42" y="18.54">워크로드입니까</tspan><tspan class="cls-10" x="58.88" y="18.54">?</tspan></text><text class="cls-32" transform="translate(330.57 357.9)">.NE<tspan class="cls-33" x="12.88" y="0">T</tspan><tspan x="17.46" y="0"> </tspan><tspan class="cls-34" x="19.61" y="0">통합</tspan><tspan x="35.06" y="0"> </tspan><tspan class="cls-34" x="37.2" y="0">또는</tspan><tspan x="52.66" y="0"> </tspan><tspan class="cls-34" x="54.8" y="0">완전</tspan><tspan x="70.25" y="0"> </tspan><tspan class="cls-34"><tspan x="1.86" y="9.27">지원</tspan><tspan class="cls-10" x="17.31" y="9.27" xml:space="preserve"> Microsoft </tspan><tspan x="52.94" y="9.27">기술</tspan><tspan class="cls-10" x="68.4" y="9.27"> </tspan><tspan x="1" y="18.54">스택이</tspan><tspan class="cls-10" x="24.18" y="18.54"> </tspan><tspan x="26.33" y="18.54">필요합니까</tspan><tspan class="cls-10" x="64.96" y="18.54">?</tspan></tspan></text><text class="cls-35" transform="translate(119.31 109.16)">클라우드<tspan class="cls-10" x="30.9" y="0"> </tspan><tspan x="0" y="9.27">최적화됨</tspan></text><text class="cls-36" transform="translate(464.89 181.48)">App Service / <tspan x="18.19" y="10.2">ASE</tspan></text><text class="cls-36" transform="translate(471.98 300.06)">Container <tspan x="0.23" y="10.2">Instances</tspan></text><text class="cls-37" transform="translate(481.73 416.38)">AKS<tspan x="-23.6" y="10.2">(Azure Container </tspan><tspan x="-6.93" y="20.4">Service)</tspan></text></svg>