<svg xmlns="http://www.w3.org/2000/svg" viewBox="0 0 477.3 264.1"><title>OJ103614615</title><g id="Shapes"><path id="path34" d="M122,215.7c0-10.2,14.2-18.5,31.6-18.5s31.6,8.3,31.6,18.5-14.1,18.5-31.6,18.5S122,226,122,215.7" fill="none" stroke="#000" stroke-linecap="round" stroke-linejoin="round" stroke-width="0.67"/><path id="path48" d="M262.5,57.9c0-14.5,17-26.3,38.1-26.3s38.1,11.8,38.1,26.3-17,26.3-38.1,26.3-38.1-11.8-38.1-26.3" fill="none" stroke="#000" stroke-linecap="round" stroke-linejoin="round" stroke-width="0.67"/><path id="path64" d="M384.4,234.2c0-10.6,16.6-19.3,37-19.3s37,8.6,37,19.3-16.6,19.3-37,19.3-37-8.6-37-19.3" fill="none" stroke="#000" stroke-linecap="round" stroke-linejoin="round" stroke-width="0.67"/><path id="path78" d="M13,45.6c0-11.1,13.1-20.2,29.2-20.2s29.2,9,29.2,20.2S58.3,65.8,42.2,65.8,13,56.7,13,45.6" fill="none" stroke="#000" stroke-linecap="round" stroke-linejoin="round" stroke-width="0.67"/><path id="path92" d="M382.7,33.4c0-11.3,18.8-20.5,42-20.5s42,9.2,42,20.5-18.8,20.5-42,20.5-42-9.2-42-20.5" fill="none" stroke="#000" stroke-linecap="round" stroke-linejoin="round" stroke-width="0.67"/><path id="path108" d="M2,176.7c0-11.1,13-20.2,29.1-20.2s29.1,9,29.1,20.2-13,20.2-29.1,20.2S2,187.8,2,176.7" fill="none" stroke="#000" stroke-linecap="round" stroke-linejoin="round" stroke-width="0.67"/><path id="path122" d="M290.1,141.8c0-9.9,15.6-18,34.9-18s34.9,8,34.9,18-15.6,18-34.9,18-34.9-8-34.9-18" fill="none" stroke="#000" stroke-linecap="round" stroke-linejoin="round" stroke-width="0.67"/><path id="path150" d="M399.7,106.9c0-12.6,13-22.8,28.9-22.8s28.9,10.2,28.9,22.8-12.9,22.8-28.9,22.8-28.9-10.2-28.9-22.8" fill="none" stroke="#000" stroke-linecap="round" stroke-linejoin="round" stroke-width="0.67"/><path id="path166" d="M252,244.8c0-10.5,16-19,35.8-19s35.8,8.5,35.8,19-16,19-35.8,19-35.8-8.5-35.8-19" fill="none" stroke="#000" stroke-linecap="round" stroke-linejoin="round" stroke-width="0.67"/><path id="path175" d="M88.3,34.1c0-11.7,18.2-21.2,40.6-21.2s40.7,9.5,40.7,21.2-18.2,21.2-40.7,21.2S88.3,45.8,88.3,34.1" fill="none" stroke="#000" stroke-linecap="round" stroke-linejoin="round" stroke-width="0.67"/><g id="shape52-83"><path id="path198" d="M178.19,142.89l-24.3,54.5" fill="none" stroke="#000" stroke-linecap="round" stroke-linejoin="round" stroke-width="0.33"/></g><g id="shape58-89"><path id="path208" d="M416.08,214l-84.7-140.6" fill="none" stroke="#000" stroke-linecap="round" stroke-linejoin="round" stroke-width="0.33"/></g><path id="path220" d="M8,242.6c0-11,16.6-20,37.2-20s37.2,9,37.2,20-16.6,20-37.2,20S8,253.7,8,242.6" fill="none" stroke="#000" stroke-linecap="round" stroke-linejoin="round" stroke-width="0.67"/><g id="shape63-98"><path id="path227" d="M232.09,98.07,267,73" fill="none" stroke="#000" stroke-linecap="round" stroke-linejoin="round" stroke-width="0.33"/></g><g id="shape65-101"><path id="path232" d="M337.27,64l62.4,43.1" fill="none" stroke="#000" stroke-linecap="round" stroke-linejoin="round" stroke-width="0.33"/></g><g id="shape67-104"><path id="path237" d="M328.08,38.92l54.8-8" fill="none" stroke="#000" stroke-linecap="round" stroke-linejoin="round" stroke-width="0.33"/></g><g id="shape70-107"><path id="path242" d="M77.79,98.36l86.3,23" fill="none" stroke="#000" stroke-linecap="round" stroke-linejoin="round" stroke-width="0.33"/></g><g id="shape73-110"><path id="path247" d="M69.1,112.66l62.3,90.2" fill="none" stroke="#000" stroke-linecap="round" stroke-linejoin="round" stroke-width="0.33"/></g><g id="shape76-113"><path id="path252" d="M176.06,228.86,252,245" fill="none" stroke="#000" stroke-linecap="round" stroke-linejoin="round" stroke-width="0.33"/></g><g id="shape77-116"><path id="path257" d="M212.33,150.4l55.9,78.5" fill="none" stroke="#000" stroke-linecap="round" stroke-linejoin="round" stroke-width="0.33"/></g><g id="shape78-119"><path id="path262" d="M290.28,141.38l-46.5-20" fill="none" stroke="#000" stroke-linecap="round" stroke-linejoin="round" stroke-width="0.33"/></g><g id="shape79-122"><path id="path267" d="M122.32,216l-61-28.6" fill="none" stroke="#000" stroke-linecap="round" stroke-linejoin="round" stroke-width="0.33"/></g><g id="shape80-125"><path id="path272" d="M131.39,228.89l-49,13.7" fill="none" stroke="#000" stroke-linecap="round" stroke-linejoin="round" stroke-width="0.33"/></g><g id="shape81-128"><path id="path277" d="M175.8,98,67.9,56" fill="none" stroke="#000" stroke-linecap="round" stroke-linejoin="round" stroke-width="0.33"/></g><g id="shape82-131"><path id="path282" d="M304.61,84.14l4.7,40" fill="none" stroke="#000" stroke-linecap="round" stroke-linejoin="round" stroke-width="0.33"/></g><g id="shape94-134"><path id="path287" d="M303.16,109.49h-.3v-1.3c0-.1.1,0,.1,0h.2v.1l.1,1.1h0c0,.1,0,.1-.1.1Z" fill="#fff"/></g><g id="shape96-136"><path id="path292" d="M265.08,29.46,274,38" fill="none" stroke="#000" stroke-linecap="round" stroke-linejoin="round" stroke-width="0.33"/></g><g id="shape97-139"><path id="path297" d="M169.77,37.55l92.3,16.1" fill="none" stroke="#000" stroke-linecap="round" stroke-linejoin="round" stroke-width="0.33"/></g><path id="path78-2" data-name="path78" d="M19.2,98.2C19.2,87.1,32.3,78,48.4,78s29.2,9,29.2,20.2-13.1,20.2-29.2,20.2-29.2-9.1-29.2-20.2" fill="none" stroke="#000" stroke-linecap="round" stroke-linejoin="round" stroke-width="0.67"/><path id="path175-2" data-name="path175" d="M195.7,19c0-8.7,17.4-15.9,38.8-15.9s38.8,7.1,38.8,15.9-17.4,15.9-38.8,15.9S195.7,27.8,195.7,19" fill="none" stroke="#000" stroke-linecap="round" stroke-linejoin="round" stroke-width="0.67"/><path id="path78-3" data-name="path78" d="M164.8,120.4c0-16.5,17.5-30,38.9-30,21.6,0,38.9,13.4,38.9,30s-17.5,30-38.9,30c-21.4-.2-38.9-13.5-38.9-30" fill="none" stroke="#000" stroke-linecap="round" stroke-linejoin="round" stroke-width="0.67"/></g><g id="Text"><text transform="translate(30.82 49.65)" font-size="10" font-family="MalgunGothic, Malgun Gothic">반환</text><text transform="translate(37.73 102.95)" font-size="11" font-family="MalgunGothic, Malgun Gothic">청구</text><text transform="translate(6.8 180.9)" font-size="9" font-family="MalgunGothic, Malgun Gothic">고객<tspan x="18" y="0" font-family="SegoePrint, Segoe Print"> </tspan><tspan x="21.6" y="0">충성도</tspan></text><text transform="translate(143.93 220.8)" font-size="9" font-family="MalgunGothic, Malgun Gothic">계정</text><text transform="translate(272.33 249.8)" font-size="9" font-family="MalgunGothic, Malgun Gothic">콜<tspan x="9" y="0" font-family="SegoePrint, Segoe Print"> </tspan><tspan x="12.6" y="0">센터</tspan></text><text transform="translate(315.83 146.23)" font-size="9" font-family="MalgunGothic, Malgun Gothic">타사</text><text transform="translate(213.55 22.35)" font-size="9" font-family="MalgunGothic, Malgun Gothic">드론<tspan x="18" y="0" font-family="SegoePrint, Segoe Print"> </tspan><tspan x="21.6" y="0">공유</tspan></text><text transform="translate(20.28 246.95)" font-size="9" font-family="MalgunGothic, Malgun Gothic">사용자<tspan x="27" y="0" font-family="SegoePrint, Segoe Print"> </tspan><tspan x="30.6" y="0">등급</tspan></text><text transform="translate(401.51 239.52)" font-size="9" font-family="SegoePrint, Segoe Print">E<tspan x="6.16" y="0" letter-spacing="-0.04em">T</tspan><tspan x="11.85" y="0">A </tspan><tspan x="22.45" y="0" font-family="MalgunGothic, Malgun Gothic">분석</tspan></text><text transform="translate(192.7 126.17)" font-size="11" font-family="MalgunGothic, Malgun Gothic">발송</text><text transform="translate(104.47 36.95)" font-size="9" font-family="MalgunGothic, Malgun Gothic">비디오<tspan x="27" y="0" font-family="SegoePrint, Segoe Print"> </tspan><tspan x="30.6" y="0">감시</tspan></text><text transform="translate(280.55 62.75)" font-size="9" font-family="MalgunGothic, Malgun Gothic">드론<tspan x="18" y="0" font-family="SegoePrint, Segoe Print"> </tspan><tspan x="21.6" y="0">관리</tspan></text><text transform="translate(404.9 36.22)" font-size="9" font-family="MalgunGothic, Malgun Gothic">예상 분석</text><text transform="translate(409.58 111.48)" font-size="9" font-family="MalgunGothic, Malgun Gothic">드론<tspan x="18" y="0" font-family="SegoePrint, Segoe Print"> </tspan><tspan x="21.6" y="0">복구</tspan></text></g></svg>