<svg xmlns="http://www.w3.org/2000/svg" viewBox="0 0 457.04 220.02"><title>OJ103614597</title><g id="Shapes"><rect x="1.75" y="141.37" width="176.99" height="49.51" fill="#fff"/><path d="M178.23,141.87v48.51H2.25V141.87h176m1-1H1.25v50.51h178Z"/><line x1="40.33" y1="141.47" x2="40.33" y2="116.21" fill="none" stroke="#000" stroke-miterlimit="10"/><circle cx="40.33" cy="111.4" r="4.81" fill="none" stroke="#000" stroke-miterlimit="10"/><line x1="140.15" y1="141.47" x2="140.15" y2="116.21" fill="none" stroke="#000" stroke-miterlimit="10"/><circle cx="140.15" cy="111.4" r="4.81" fill="none" stroke="#000" stroke-miterlimit="10"/><rect x="1.75" y="0.5" width="77.17" height="53.12" fill="#fff"/><path d="M78.42,1V53.12H2.25V1H78.42m1-1H1.25V54.12H79.42Z"/><line x1="40.33" y1="53.68" x2="40.33" y2="94.61" fill="none" stroke="#000" stroke-miterlimit="10"/><polygon points="35.35 93.15 40.33 101.78 45.32 93.15 35.35 93.15"/><rect x="101.56" y="0.5" width="77.17" height="53.12" fill="#fff"/><path d="M178.23,1V53.12H102.07V1h76.16m1-1H101.07V54.12h78.16Z"/><line x1="140.15" y1="53.68" x2="140.15" y2="94.61" fill="none" stroke="#000" stroke-miterlimit="10"/><polygon points="135.16 93.15 140.15 101.78 145.14 93.15 135.16 93.15"/><line x1="318.14" y1="141.47" x2="318.14" y2="116.21" fill="none" stroke="#000" stroke-miterlimit="10"/><circle cx="318.14" cy="111.4" r="4.81" fill="none" stroke="#000" stroke-miterlimit="10"/><line x1="417.95" y1="141.47" x2="417.95" y2="116.21" fill="none" stroke="#000" stroke-miterlimit="10"/><circle cx="417.95" cy="111.4" r="4.81" fill="none" stroke="#000" stroke-miterlimit="10"/><rect x="279.55" y="0.5" width="77.17" height="53.12" fill="#fff"/><path d="M356.22,1V53.12H280.05V1h76.17m1-1H279.05V54.12h78.17Z"/><line x1="318.14" y1="53.68" x2="318.14" y2="94.61" fill="none" stroke="#000" stroke-miterlimit="10"/><polygon points="313.15 93.15 318.14 101.78 323.12 93.15 313.15 93.15"/><rect x="379.37" y="0.5" width="77.17" height="53.12" fill="#fff"/><path d="M456,1V53.12H379.87V1H456m1-1H378.87V54.12H457Z"/><line x1="417.95" y1="53.68" x2="417.95" y2="94.61" fill="none" stroke="#000" stroke-miterlimit="10"/><polygon points="412.97 93.15 417.95 101.78 422.94 93.15 412.97 93.15"/><rect x="279.55" y="139.56" width="77.17" height="53.12" fill="#fff"/><path d="M356.22,140.06v52.12H280.05V140.06h76.17m1-1H279.05v54.12h78.17Z"/><rect x="379.37" y="139.56" width="77.17" height="53.12" fill="#fff"/><path d="M456,140.06v52.12H379.87V140.06H456m1-1H378.87v54.12H457Z"/></g><g id="Text"><text transform="translate(105.75 30.22)" font-size="11" font-family="SegoeUI, Segoe UI">v2 <tspan x="14.21" y="0" font-family="MalgunGothic, Malgun Gothic">클라이언트</tspan></text><text transform="translate(5.72 30.22)" font-size="11" font-family="SegoeUI, Segoe UI">v1 <tspan x="14.21" y="0" font-family="MalgunGothic, Malgun Gothic">클라이언트</tspan></text><text transform="translate(51.58 114.41)" font-size="14.5" font-family="SegoeUI, Segoe UI">v1</text><text transform="translate(62.5 171.91)" font-size="14.5" font-family="MalgunGothic, Malgun Gothic">서비스</text><text transform="translate(5.02 216.68)" font-size="13" font-family="MalgunGothic, Malgun Gothic">서비스에서<tspan x="65" y="0" font-family="SegoeUI-Italic, Segoe UI" font-style="italic"> </tspan><tspan x="68.57" y="0">두</tspan><tspan x="81.57" y="0" font-family="SegoeUI-Italic, Segoe UI" font-style="italic"> </tspan><tspan x="85.15" y="0">가지</tspan><tspan x="111.15" y="0" font-family="SegoeUI-Italic, Segoe UI" font-style="italic"> </tspan><tspan x="114.72" y="0">버전</tspan><tspan x="140.72" y="0" font-family="SegoeUI-Italic, Segoe UI" font-style="italic"> </tspan><tspan x="144.29" y="0">지원</tspan></text><text transform="translate(150.64 115.61)" font-size="14.5" font-family="SegoeUI, Segoe UI">v2</text><text transform="translate(383.56 30.22)" font-size="11" font-family="SegoeUI, Segoe UI">v2 <tspan x="14.21" y="0" font-family="MalgunGothic, Malgun Gothic">클라이언트</tspan></text><text transform="translate(283.53 30.22)" font-size="11" font-family="SegoeUI, Segoe UI">v1 <tspan x="14.21" y="0" font-family="MalgunGothic, Malgun Gothic">클라이언트</tspan></text><text transform="translate(329.39 114.41)" font-size="14.5" font-family="SegoeUI, Segoe UI">v1</text><text transform="translate(340.19 216.68)" font-size="13" font-family="MalgunGothic, Malgun Gothic">병렬<tspan x="26" y="0" font-family="SegoeUI-Italic, Segoe UI" font-style="italic"> </tspan><tspan x="29.57" y="0">배포</tspan></text><text transform="translate(428.45 115.61)" font-size="14.5" font-family="SegoeUI, Segoe UI">v2</text><text transform="translate(310.55 162.54)" font-size="14.4" font-family="SegoeUI, Segoe UI">v1 <tspan font-family="MalgunGothic, Malgun Gothic"><tspan x="-14.27" y="17.28">서비스</tspan></tspan></text><text transform="translate(411.89 162.54)" font-size="14.4" font-family="SegoeUI, Segoe UI">v2 <tspan font-family="MalgunGothic, Malgun Gothic"><tspan x="-14.27" y="17.28">서비스</tspan></tspan></text></g></svg>