<svg xmlns="http://www.w3.org/2000/svg" viewBox="0 0 440.64 312.58"><defs><style>.cls-1{fill:none;stroke:#afafaf;stroke-miterlimit:10;stroke-width:6px;}.cls-2{fill:#afafaf;}.cls-3{fill:#3fa0ec;}.cls-4{fill:#8fb6cc;}.cls-5{fill:#2a3282;}.cls-12,.cls-6,.cls-8{fill:#fff;}.cls-10,.cls-11,.cls-7,.cls-8,.cls-9{isolation:isolate;}.cls-7{font-size:14.87px;fill:#213d47;}.cls-11,.cls-12,.cls-13,.cls-7,.cls-8,.cls-9{font-family:MalgunGothic, Malgun Gothic;}.cls-12,.cls-8{font-size:18px;}.cls-11,.cls-13,.cls-9{font-size:18.04px;fill:#0070c0;}.cls-11{letter-spacing:-0.03em;}</style></defs><title>OJ103514692</title><g id="Shapes"><line class="cls-1" x1="127.46" y1="232.67" x2="341" y2="228.83"/><polygon class="cls-2" points="129.76 240.11 116.7 232.83 129.54 225.16 129.76 240.11"/><line class="cls-1" x1="362" y1="71.19" x2="362" y2="185.43"/><polygon class="cls-2" points="354.52 183.24 362 196.19 369.48 183.24 354.52 183.24"/><rect class="cls-3" x="162.06" y="195" width="95.75" height="71.66" rx="8" ry="8"/><line class="cls-1" x1="114" y1="37.83" x2="327.54" y2="33.99"/><polygon class="cls-2" points="325.46 41.5 338.3 33.83 325.24 26.54 325.46 41.5"/><path class="cls-4" d="M106,4.19a4,4,0,0,1,4,4v250a4,4,0,0,1-4,4H8a4,4,0,0,1-4-4V8.19a4,4,0,0,1,4-4h98m0-4H8a8,8,0,0,0-8,8v250a8,8,0,0,0,8,8h98a8,8,0,0,0,8-8V8.19A8,8,0,0,0,106,.19Z"/><rect class="cls-3" x="162.06" width="95.75" height="71.66" rx="8" ry="8"/><path class="cls-5" d="M336.16,49V59.19c0,4.76,9.53,10.06,22.07,11h8.29c12.54-.89,22.07-5.11,22.07-10.06V11.93c0-5.3-11.84-10.42-26.32-10.42s-26.13,4.76-26.13,10.25V49Z"/><ellipse class="cls-6" cx="362.36" cy="11.67" rx="20.5" ry="6.5"/><path class="cls-5" d="M336.16,244v10.23c0,4.76,9.53,10.06,22.07,11h8.29c12.54-.89,22.07-5.11,22.07-10.06v-48.2c0-5.3-11.84-10.42-26.32-10.42s-26.13,4.76-26.13,10.25V244Z"/><ellipse class="cls-6" cx="362.36" cy="206.67" rx="20.5" ry="6.5"/><rect class="cls-3" x="308.39" y="102.1" width="107.94" height="49.19" rx="8" ry="8"/></g><g id="txt"><text class="cls-7" transform="translate(10.55 131.65) scale(1.21 1)">클라이언트</text><text class="cls-8" transform="translate(334.14 130.64)">이벤트</text><text class="cls-9" transform="translate(268.71 20.61)">쓰기</text><g class="cls-10"><text class="cls-11" transform="translate(270.48 213.61)">읽기</text></g><text class="cls-9" transform="translate(368.48 176.73)">업데이트</text><text class="cls-12" transform="translate(191.75 30.17)">명령 <tspan x="0" y="21.6">모델</tspan></text><text class="cls-12" transform="translate(191.75 224.75)">쿼리 <tspan x="0" y="21.6">모델</tspan></text><text class="cls-13" transform="translate(314.73 288.78)">구체화된 뷰</text></g></svg>