<svg xmlns="http://www.w3.org/2000/svg" viewBox="0 0 730.58 385.19"><defs><style>.cls-1{fill:#3fa0ec;}.cls-2{fill:#8fb6cc;}.cls-10,.cls-11,.cls-12,.cls-14,.cls-3{fill:none;}.cls-3{stroke:#afafaf;stroke-width:6px;}.cls-10,.cls-11,.cls-12,.cls-14,.cls-3,.cls-6,.cls-7,.cls-8,.cls-9{stroke-miterlimit:10;}.cls-4{fill:#afafaf;}.cls-5{fill:#217da5;}.cls-6{fill:red;}.cls-6,.cls-7,.cls-8,.cls-9{stroke:#fff;}.cls-7{fill:#f9c943;}.cls-8{fill:#39b54a;}.cls-9{fill:#88bee2;}.cls-10,.cls-11,.cls-12{stroke:#0070c0;stroke-width:2px;}.cls-11{stroke-dasharray:5.91 5.91;}.cls-12{stroke-dasharray:5.88 5.88;}.cls-13,.cls-20{fill:#0070c0;}.cls-14{stroke:#8e8e8e;stroke-width:3px;}.cls-15{fill:#8e8e8e;}.cls-16,.cls-17,.cls-20,.cls-25,.cls-26{isolation:isolate;}.cls-16{font-size:19.34px;fill:#213d47;}.cls-16,.cls-17,.cls-19,.cls-20,.cls-24,.cls-25,.cls-27,.cls-28{font-family:MalgunGothic, Malgun Gothic;}.cls-17{font-size:18.77px;}.cls-17,.cls-18,.cls-23,.cls-24,.cls-26,.cls-27{fill:#fff;}.cls-18{font-size:14px;}.cls-18,.cls-21,.cls-23,.cls-26{font-family:ArialMT, Arial;}.cls-20,.cls-23{font-size:18.04px;}.cls-22{letter-spacing:0em;}.cls-24{font-size:16px;letter-spacing:-0.03em;}.cls-25,.cls-28{font-size:15px;fill:#383838;}.cls-26{font-size:15.58px;}.cls-27{font-size:15.61px;letter-spacing:-0.03em;}</style></defs><title>OJ103514673</title><g id="Shapes"><rect class="cls-1" x="647" y="105.14" width="81" height="57" rx="8" ry="8"/><path class="cls-2" d="M109,42a4,4,0,0,1,4,4V376a4,4,0,0,1-4,4H8a4,4,0,0,1-4-4V46a4,4,0,0,1,4-4H109m0-4H8a8,8,0,0,0-8,8V376a8,8,0,0,0,8,8H109a8,8,0,0,0,8-8V46A8,8,0,0,0,109,38Z"/><rect class="cls-1" x="150" y="332.15" width="63.04" height="52.03" rx="8" ry="8"/><line class="cls-3" x1="117" y1="171" x2="221.24" y2="171"/><polygon class="cls-4" points="219.05 178.48 232 171 219.05 163.52 219.05 178.48"/><rect class="cls-5" x="383.68" y="36.31" width="214" height="60" rx="8" ry="8"/><polygon class="cls-6" points="435.28 42.23 407.48 42.23 393.58 66.31 407.48 90.38 435.28 90.38 449.18 66.31 435.28 42.23"/><rect class="cls-5" x="383.68" y="103.64" width="214" height="60" rx="8" ry="8"/><polygon class="cls-7" points="435.28 109.56 407.48 109.56 393.58 133.64 407.48 157.72 435.28 157.72 449.18 133.64 435.28 109.56"/><rect class="cls-5" x="383.68" y="170.97" width="214" height="60" rx="8" ry="8"/><polygon class="cls-8" points="435.28 176.9 407.48 176.9 393.58 200.97 407.48 225.05 435.28 225.05 449.18 200.97 435.28 176.9"/><rect class="cls-5" x="383.68" y="238.31" width="214" height="60" rx="8" ry="8"/><polygon class="cls-9" points="435.28 244.23 407.48 244.23 393.58 268.31 407.48 292.38 435.28 292.38 449.18 268.31 435.28 244.23"/><polyline class="cls-10" points="620.68 304 620.68 307 617.68 307"/><line class="cls-11" x1="611.77" y1="307" x2="366.63" y2="307"/><polyline class="cls-10" points="363.68 307 360.68 307 360.68 304"/><line class="cls-12" x1="360.68" y1="298.12" x2="360.68" y2="6.94"/><polyline class="cls-10" points="360.68 4 360.68 1 363.68 1"/><line class="cls-11" x1="369.59" y1="1" x2="614.73" y2="1"/><polyline class="cls-10" points="617.68 1 620.68 1 620.68 4"/><line class="cls-12" x1="620.68" y1="9.88" x2="620.68" y2="301.06"/><rect class="cls-10" x="510.68" y="339.44" width="110" height="44.75"/><line class="cls-10" x1="473.01" y1="362" x2="500.34" y2="361.9"/><polygon class="cls-13" points="498.9 366.89 507.52 361.87 498.86 356.92 498.9 366.89"/><line class="cls-10" x1="565.68" y1="331.82" x2="565.68" y2="310"/><polygon class="cls-13" points="570.67 330.37 565.68 339 560.7 330.37 570.67 330.37"/><line class="cls-10" x1="415.68" y1="339" x2="415.68" y2="317.18"/><polygon class="cls-13" points="420.67 318.63 415.68 310 410.69 318.63 420.67 318.63"/><rect class="cls-10" x="360.68" y="339.44" width="110" height="44.75"/><line class="cls-14" x1="334" y1="171" x2="378.52" y2="262.83"/><polygon class="cls-15" points="372.84 263.79 382 270 382.8 258.96 372.84 263.79"/><line class="cls-3" x1="598" y1="134" x2="636.24" y2="134"/><polygon class="cls-4" points="634.05 141.48 647 134 634.05 126.52 634.05 141.48"/><line class="cls-14" x1="334" y1="171" x2="378.69" y2="73.24"/><polygon class="cls-15" points="383.05 77.02 382 66 372.98 72.42 383.05 77.02"/><line class="cls-14" x1="334" y1="171" x2="377.41" y2="141.48"/><polygon class="cls-15" points="379.19 146.97 384 137 372.96 137.81 379.19 146.97"/><line class="cls-14" x1="334" y1="171" x2="377.17" y2="196.9"/><polygon class="cls-15" points="372.93 200.81 384 201 378.63 191.32 372.93 200.81"/><rect class="cls-1" x="232.36" y="38" width="102" height="260" rx="8" ry="8"/><rect class="cls-1" x="243.5" y="332.15" width="86.72" height="52.03" rx="8" ry="8"/><line class="cls-3" x1="127.76" y1="358.17" x2="150" y2="358.17"/><polygon class="cls-4" points="129.95 365.65 117 358.17 129.95 350.69 129.95 365.65"/><line class="cls-3" x1="223.76" y1="358.17" x2="243" y2="358.17"/><polygon class="cls-4" points="225.95 365.65 213 358.17 225.95 350.69 225.95 365.65"/><line class="cls-3" x1="117" y1="69.49" x2="129.24" y2="69.49"/><polygon class="cls-4" points="127.05 76.97 140 69.49 127.05 62.01 127.05 76.97"/><line class="cls-3" x1="209" y1="69.49" x2="221.24" y2="69.49"/><polygon class="cls-4" points="219.05 76.97 232 69.49 219.05 62.01 219.05 76.97"/><rect class="cls-1" x="139.68" y="37.66" width="70" height="63.66" rx="8" ry="8"/></g><g id="Layer_2" data-name="Layer 2"><text class="cls-16" transform="translate(14.22 208.99) scale(0.93 1)">클라이언트</text><text class="cls-17" transform="translate(483.65 70.43) scale(0.96 1)">서비스</text><text class="cls-17" transform="translate(483.65 137.76) scale(0.96 1)">서비스</text><text class="cls-17" transform="translate(483.65 205.09) scale(0.96 1)">서비스</text><text class="cls-17" transform="translate(483.65 272.43) scale(0.96 1)">서비스</text><text class="cls-18" transform="translate(167.81 64.37)">ID <tspan class="cls-19"><tspan x="-14" y="16.8">공급자</tspan></tspan></text><text class="cls-20" transform="translate(426.03 26.42)">마이크로<tspan class="cls-21" x="72.16" y="0"> </tspan><tspan class="cls-22" x="77.17" y="0">서비스</tspan></text><text class="cls-23" transform="translate(268.65 151.58)">API <tspan class="cls-19"><tspan x="-30.56" y="21.65">게이트웨이</tspan></tspan></text><text class="cls-24" transform="translate(671.74 128.02)">원격<tspan class="cls-21" x="31.04" y="0" xml:space="preserve"> </tspan><tspan x="-7.76" y="19.2">서비스</tspan></text><text class="cls-25" transform="translate(400.68 365.11)">관리</text><text class="cls-26" transform="translate(164.15 361.59) scale(0.97 1)">CDN</text><text class="cls-27" transform="translate(271.48 352.82)">고정<tspan class="cls-21" x="30.28" y="0"> </tspan><tspan x="-7.57" y="18.73">콘텐츠</tspan></text><text class="cls-28" transform="translate(544.61 356.6)">서비스<tspan class="cls-21" x="45" y="0"> </tspan><tspan x="7.5" y="18">검색</tspan></text></g></svg>