<svg xmlns="http://www.w3.org/2000/svg" viewBox="0 0 786 353.13"><defs><style>.cls-1,.cls-3{fill:none;stroke:#afafaf;stroke-width:6px;}.cls-1{stroke-miterlimit:10;}.cls-2{fill:#afafaf;}.cls-3{stroke-linejoin:bevel;}.cls-4{fill:#3fa0ec;}.cls-5{fill:#8fb6cc;}.cls-6,.cls-7,.cls-9{isolation:isolate;}.cls-6,.cls-9{font-size:18px;}.cls-6{fill:#213d47;}.cls-10,.cls-6,.cls-9{font-family:MalgunGothic, Malgun Gothic;}.cls-7{font-size:17.97px;}.cls-10,.cls-12,.cls-7,.cls-9{fill:#fff;}.cls-11,.cls-12,.cls-7{font-family:ArialMT, Arial;}.cls-8{letter-spacing:-0.04em;}.cls-10,.cls-12{font-size:18.04px;}.cls-13{letter-spacing:-0.04em;}</style></defs><title>OJ103514636</title><g id="Shapes"><line class="cls-1" x1="561.76" y1="209.38" x2="681" y2="209.38"/><polygon class="cls-2" points="563.95 216.86 551 209.38 563.95 201.9 563.95 216.86"/><line class="cls-1" x1="538" y1="36.38" x2="670.24" y2="36.38"/><polygon class="cls-2" points="668.05 43.86 681 36.38 668.05 28.9 668.05 43.86"/><line class="cls-1" x1="537" y1="109.38" x2="670.24" y2="110.31"/><polygon class="cls-2" points="668 117.77 681 110.38 668.1 102.81 668 117.77"/><line class="cls-3" x1="537" y1="272.87" x2="671.23" y2="272.7"/><polygon class="cls-2" points="669.05 280.18 682 272.68 669.04 265.22 669.05 280.18"/><line class="cls-1" x1="561.76" y1="143.38" x2="681" y2="143.38"/><polygon class="cls-2" points="563.95 150.86 551 143.38 563.95 135.9 563.95 150.86"/><line class="cls-1" x1="330" y1="272.38" x2="464.24" y2="272.38"/><polygon class="cls-2" points="462.05 279.86 475 272.38 462.05 264.9 462.05 279.86"/><rect class="cls-4" x="254.5" y="0.38" width="76" height="352.75" rx="8" ry="8"/><rect class="cls-4" x="474.75" width="76" height="186" rx="8" ry="8"/><rect class="cls-4" x="474.75" y="193.78" width="76" height="158" rx="8" ry="8"/><rect class="cls-4" x="344.75" y="242.73" width="95.75" height="60.1" rx="8" ry="8"/><rect class="cls-4" x="585" y="121.38" width="61.75" height="109" rx="8" ry="8"/><line class="cls-1" x1="330" y1="72.38" x2="464.24" y2="73.32"/><polygon class="cls-2" points="462.01 80.79 475 73.38 462.09 65.83 462.01 80.79"/><rect class="cls-4" x="681" width="105" height="73" rx="8" ry="8"/><rect class="cls-4" x="681" y="81.78" width="105" height="270" rx="8" ry="8"/><rect class="cls-4" x="150.25" y="83.88" width="70" height="185.75" rx="8" ry="8"/><line class="cls-1" x1="220" y1="176.76" x2="243.24" y2="176.76"/><polygon class="cls-2" points="241.05 184.24 254 176.76 241.05 169.28 241.05 184.24"/><path class="cls-5" d="M108,4.38a4,4,0,0,1,4,4v335a4,4,0,0,1-4,4H8a4,4,0,0,1-4-4V8.38a4,4,0,0,1,4-4H108m0-4H8a8,8,0,0,0-8,8v335a8,8,0,0,0,8,8H108a8,8,0,0,0,8-8V8.38A8,8,0,0,0,108,.38Z"/><line class="cls-1" x1="116" y1="176.76" x2="139.24" y2="176.76"/><polygon class="cls-2" points="137.05 184.24 150 176.76 137.05 169.28 137.05 184.24"/></g><g id="txt"><text class="cls-6" transform="translate(11.7 179.85)">클라이언트</text><text class="cls-7" transform="translate(167.21 180.71) scale(0.97 1)"><tspan class="cls-8">W</tspan><tspan x="16.29" y="0">AF</tspan></text><text class="cls-9" transform="translate(599.88 179.71)">캐시</text><text class="cls-10" transform="translate(283.63 170.52)">웹<tspan class="cls-11" x="18.04" y="0"> </tspan><tspan x="-9.02" y="21.65">계층</tspan></text><text class="cls-9" transform="translate(365.52 276.59)">메시징</text><text class="cls-10" transform="translate(494.71 87.02)">중간<tspan class="cls-11" x="36.08" y="0"> </tspan><tspan x="-7.52" y="21.65">계층</tspan><tspan class="cls-11" x="28.56" y="21.65" xml:space="preserve"> 1</tspan></text><text class="cls-10" transform="translate(493.71 267.67)">중간<tspan class="cls-11" x="36.08" y="0"> </tspan><tspan x="-7.52" y="21.65">계층</tspan><tspan class="cls-11" x="28.56" y="21.65" xml:space="preserve"> 2</tspan></text><text class="cls-10" transform="translate(717.46 30.4)">원격<tspan class="cls-11" x="36.08" y="0"> </tspan><tspan x="-9.02" y="21.65">서비스</tspan></text><text class="cls-12" transform="translate(714.45 220.41)">Data<tspan class="cls-13" x="3.85" y="21.65">T</tspan><tspan x="14.2" y="21.65">ier</tspan></text></g></svg>