<svg xmlns="http://www.w3.org/2000/svg" viewBox="0 0 800 325.43"><defs><style>.cls-1,.cls-3{fill:none;stroke:#afafaf;stroke-width:6px;}.cls-1{stroke-miterlimit:10;}.cls-2{fill:#afafaf;}.cls-3{stroke-linejoin:bevel;}.cls-4{fill:#3fa0ec;}.cls-5{fill:#8fb6cc;}.cls-6,.cls-7,.cls-8{isolation:isolate;}.cls-6,.cls-7{font-size:18px;}.cls-11,.cls-13,.cls-6,.cls-8,.cls-9{fill:#fff;}.cls-10,.cls-11,.cls-13,.cls-6,.cls-7{font-family:MalgunGothic, Malgun Gothic;}.cls-7{fill:#213d47;}.cls-8{font-size:17.97px;}.cls-12,.cls-8,.cls-9{font-family:ArialMT, Arial;}.cls-13,.cls-9{font-size:14px;}.cls-11{font-size:18.04px;}</style></defs><title>OJ103514640</title><g id="Shapes"><line class="cls-1" x1="576.76" y1="155.93" x2="676" y2="155.93"/><polygon class="cls-2" points="578.95 163.41 566 155.93 578.95 148.45 578.95 163.41"/><line class="cls-1" x1="371.76" y1="293.85" x2="679" y2="293.85"/><polygon class="cls-2" points="373.95 301.33 361 293.85 373.95 286.37 373.95 301.33"/><line class="cls-1" x1="564" y1="174.93" x2="665.24" y2="174.93"/><polygon class="cls-2" points="663.05 182.41 676 174.93 663.05 167.45 663.05 182.41"/><line class="cls-1" x1="371.76" y1="88.43" x2="682.01" y2="88.43"/><polygon class="cls-2" points="373.95 95.91 360.99 88.42 373.95 80.95 373.95 95.91"/><line class="cls-1" x1="361" y1="68.93" x2="665.24" y2="68.93"/><polygon class="cls-2" points="663.05 76.41 676 68.92 663.05 61.45 663.05 76.41"/><line class="cls-3" x1="360.99" y1="24.46" x2="667.24" y2="24.46"/><polygon class="cls-2" points="665.05 31.94 678.01 24.46 665.05 16.98 665.05 31.94"/><line class="cls-1" x1="228" y1="65.41" x2="251.24" y2="65.41"/><polygon class="cls-2" points="249.05 72.89 262 65.41 249.05 57.94 249.05 72.89"/><rect class="cls-4" x="489.55" y="104.93" width="76" height="145.04" rx="8" ry="8"/><path class="cls-5" d="M108,5.72a4,4,0,0,1,4,4v306a4,4,0,0,1-4,4H8a4,4,0,0,1-4-4V9.72a4,4,0,0,1,4-4H108m0-4H8a8,8,0,0,0-8,8v306a8,8,0,0,0,8,8H108a8,8,0,0,0,8-8V9.72A8,8,0,0,0,108,1.72Z"/><line class="cls-1" x1="114" y1="65.41" x2="138.24" y2="65.41"/><polygon class="cls-2" points="136.05 72.89 149 65.41 136.05 57.94 136.05 72.89"/><line class="cls-1" x1="361" y1="214.95" x2="383.24" y2="214.95"/><polygon class="cls-2" points="381.05 222.43 394 214.95 381.05 207.47 381.05 222.43"/><rect class="cls-4" x="676" width="124" height="48.93" rx="8" ry="8"/><rect class="cls-4" x="676" y="265.43" width="124" height="60" rx="8" ry="8"/><rect class="cls-4" x="676" y="55.18" width="124" height="204" rx="8" ry="8"/><rect class="cls-4" x="394.18" y="184.97" width="62.64" height="60" rx="8" ry="8"/><rect class="cls-4" x="261.45" y="1.59" width="100" height="257.34" rx="8" ry="8"/><rect class="cls-4" x="261.45" y="263.85" width="100" height="60" rx="8" ry="8"/><rect class="cls-4" x="148.73" y="33.59" width="80" height="63.66" rx="8" ry="8"/><line class="cls-1" x1="457" y1="214.97" x2="479.24" y2="214.97"/><polygon class="cls-2" points="477.05 222.45 490 214.97 477.05 207.49 477.05 222.45"/><line class="cls-1" x1="126.76" y1="293.85" x2="261" y2="293.85"/><polygon class="cls-2" points="128.95 301.33 116 293.85 128.95 286.37 128.95 301.33"/><rect class="cls-4" x="596" y="75.93" width="61.75" height="92" rx="8" ry="8"/></g><g id="Layer_2" data-name="Layer 2"><text class="cls-6" transform="translate(500.55 174.93)">작업자</text><text class="cls-7" transform="translate(12.35 160.85)">클라이언트</text><text class="cls-6" transform="translate(685.39 168.38)">데이터베이스</text><text class="cls-6" transform="translate(416.5 218.92)">큐</text><text class="cls-8" transform="translate(293.47 297.79) scale(0.97 1)">CDN</text><text class="cls-6" transform="translate(609.77 125.88)">캐시</text><text class="cls-9" transform="translate(181.22 60.37)">ID <tspan class="cls-10"><tspan x="-14" y="16.8">공급자</tspan></tspan></text><text class="cls-11" transform="translate(273.76 130.63)">웹<tspan class="cls-12" x="18.04" y="0"> </tspan><tspan x="23.05" y="0">프런트</tspan><tspan class="cls-12" x="77.17" y="0"> </tspan><tspan x="20.55" y="21.65">엔드</tspan></text><text class="cls-13" transform="translate(725.39 19.95)">원격<tspan class="cls-12" x="28" y="0" xml:space="preserve"> </tspan><tspan x="-7" y="16.8">서비스</tspan></text><text class="cls-13" transform="translate(725.39 290.91)">고정<tspan class="cls-12" x="28" y="0" xml:space="preserve"> </tspan><tspan x="-7" y="16.8">콘텐츠</tspan></text></g></svg>